<?xml version="1.0" encoding="UTF-8"?>
<svg width="342px" height="264px" viewBox="0 0 342 264" version="1.1" xmlns="http://www.w3.org/2000/svg" xmlns:xlink="http://www.w3.org/1999/xlink">
    <!-- Generator: Sketch 57.1 (83088) - https://sketch.com -->
    <title>Group 7</title>
    <desc>Created with Sketch.</desc>
    <g id="Page-1-Copy" stroke="none" stroke-width="1" fill="none" fill-rule="evenodd">
        <g id="Extra-large:-Desktops---12-col" transform="translate(-1163.000000, -1298.000000)">
            <g id="Group-7" transform="translate(1163.000000, 1298.000000)">
                <rect id="Rectangle" stroke="#1A1A1A" stroke-width="4" fill="#FFD600" x="2" y="2" width="338" height="260"></rect>
                <g id="Group-12" transform="translate(113.000000, 30.000000)">
                    <g id="Group-6" stroke="#1A1A1A" stroke-width="6">
                        <path d="M36.7118644,3 L36.7118644,8.87288136 C36.7118644,10.5297356 38.0550102,11.8728814 39.7118644,11.8728814 L78.279661,11.8728814 C79.9365153,11.8728814 81.279661,10.5297356 81.279661,8.87288136 L81.279661,3 L36.7118644,3 Z" id="Rectangle" fill="#1A1A1A"></path>
                        <rect id="Rectangle" x="3" y="3" width="111" height="198.254237" rx="13"></rect>
                    </g>
                    <g id="Group_62_1_" transform="translate(28.754237, 61.474576)" fill="#1A1A1A" fill-rule="nonzero">
                        <ellipse id="Ellipse_1_1_" cx="41.6440678" cy="11.4025424" rx="10.9067797" ry="11.4025424"></ellipse>
                        <path d="M59.4915254,42.7099625 L59.4915254,77.9489731 C59.4960835,78.5775212 59.2541388,79.1816988 58.8198251,79.626162 C58.3855113,80.0706252 57.7951303,80.318224 57.1809353,80.3135593 L28.0113242,80.3135593 L28.0113242,50.0763023 C28.0032,46.69427 26.8659686,43.4166268 24.7881356,40.786669 C25.7196903,31.7178624 33.1752668,24.8222129 42.0857506,24.7881356 C51.7122705,24.8571697 59.4829267,32.8582428 59.4915254,42.7099625 Z" id="Path_110"></path>
                        <ellipse id="Ellipse_2_1_" cx="14.8728814" cy="20.8220339" rx="9.91525424" ry="10.9067797"></ellipse>
                        <path d="M27.7622686,49.5790705 L27.7622686,80.3380737 C27.7627119,80.8669737 27.5629626,81.3734562 27.209179,81.7422304 C26.8553954,82.1110046 26.3774321,82.3106917 25.8840881,82.2958369 L1.8269102,82.2958369 C1.34141928,82.2992689 0.874884516,82.0941074 0.531583126,81.726209 C0.188281735,81.3583106 -0.00316300866,80.8583493 0,80.3380737 L0,49.6353354 C-0.0078879613,41.4070928 6.20306151,34.7259632 13.8811541,34.7033898 L13.8811541,34.7033898 C18.0523977,34.6994904 22.0024615,36.7133631 24.6311722,40.1841092 C26.6787809,42.820413 27.7881625,46.1491502 27.7622686,49.5790705 L27.7622686,49.5790705 Z" id="Path_111" stroke="#FFD600" stroke-width="2"></path>
                    </g>
                </g>
            </g>
        </g>
    </g>
</svg>