<?xml version="1.0" encoding="UTF-8"?>
<svg width="342px" height="264px" viewBox="0 0 342 264" version="1.1" xmlns="http://www.w3.org/2000/svg" xmlns:xlink="http://www.w3.org/1999/xlink">
    <!-- Generator: Sketch 57.1 (83088) - https://sketch.com -->
    <title>Group 10</title>
    <desc>Created with Sketch.</desc>
    <g id="Page-1-Copy" stroke="none" stroke-width="1" fill="none" fill-rule="evenodd">
        <g id="Extra-large:-Desktops---12-col" transform="translate(-1163.000000, -1696.000000)">
            <g id="Group-10" transform="translate(1163.000000, 1696.000000)">
                <g id="Group-7" fill="#FFD600" stroke="#1A1A1A" stroke-width="4">
                    <rect id="Rectangle" x="2" y="2" width="338" height="260"></rect>
                </g>
                <g id="Group-9" transform="translate(120.000000, 30.000000)" fill="#1A1A1A">
                    <rect id="Rectangle" x="0" y="83" width="103" height="90"></rect>
                    <rect id="Rectangle" x="8" y="169.28" width="87" height="35"></rect>
                    <g id="Group-8" transform="translate(18.837209, 0.000000)">
                        <path d="M15.7190285,-0.00884310007 C17.9132158,-0.0106808581 19.6934458,1.7665696 19.6952836,3.96075691 C19.6952852,3.96271317 19.6952854,3.96466944 19.6952842,3.9666257 L19.6579755,62.2944136 C19.6565694,64.492795 17.8750109,66.2747061 15.6766299,66.2765473 C13.4824426,66.2783851 11.7022125,64.5011346 11.7003747,62.3069473 C11.7003731,62.3049911 11.7003729,62.3030348 11.7003742,62.3010785 L11.7376828,3.97329065 C11.739089,1.77490928 13.5206474,-0.00700182959 15.7190285,-0.00884310007 Z" id="Rectangle" transform="translate(15.697829, 33.133852) rotate(20.000000) translate(-15.697829, -33.133852) "></path>
                        <path d="M41.1280052,-0.00883701177 C43.3221925,-0.0106747724 45.1024226,1.76657573 45.1042604,3.96076309 C45.104262,3.96271935 45.1042622,3.96467562 45.104261,3.96663188 L45.0669525,62.2942191 C45.0655463,64.4926005 43.2839878,66.2745117 41.0856067,66.2763529 C38.8914194,66.2781907 37.1111893,64.5009402 37.1093515,62.3067528 C37.1093499,62.3047966 37.1093497,62.3028403 37.1093509,62.300884 L37.1466594,3.97329684 C37.1480656,1.77491542 38.9296241,-0.00699573862 41.1280052,-0.00883701177 Z" id="Rectangle" transform="translate(41.106806, 33.133758) rotate(20.000000) translate(-41.106806, -33.133758) "></path>
                        <path d="M65.8721912,-0.00883701176 C68.0663786,-0.0106747724 69.8466087,1.76657573 69.8484464,3.96076309 C69.8484481,3.96271935 69.8484483,3.96467562 69.848447,3.96663188 L69.8111386,62.2942191 C69.8097324,64.4926005 68.0281739,66.2745117 65.8297928,66.2763529 C63.6356054,66.2781907 61.8553753,64.5009402 61.8535376,62.3067528 C61.8535359,62.3047966 61.8535357,62.3028403 61.853537,62.300884 L61.8908454,3.97329684 C61.8922516,1.77491542 63.6738101,-0.00699573862 65.8721912,-0.00883701176 Z" id="Rectangle" transform="translate(65.850992, 33.133758) rotate(20.000000) translate(-65.850992, -33.133758) "></path>
                    </g>
                    <path d="M103.5,155 C118.687831,155 131,142.687831 131,127.5 C131,112.312169 118.687831,100 103.5,100 C88.3121694,100 76,112.312169 76,127.5 C76,142.687831 88.3121694,155 103.5,155 Z M103.5,144 C94.3873016,144 87,136.612698 87,127.5 C87,118.387302 94.3873016,111 103.5,111 C112.612698,111 120,118.387302 120,127.5 C120,136.612698 112.612698,144 103.5,144 Z" id="Oval" fill-rule="nonzero"></path>
                </g>
            </g>
        </g>
    </g>
</svg>