<?xml version="1.0" encoding="UTF-8"?>
<svg width="342px" height="264px" viewBox="0 0 342 264" version="1.1" xmlns="http://www.w3.org/2000/svg" xmlns:xlink="http://www.w3.org/1999/xlink">
    <!-- Generator: Sketch 57.1 (83088) - https://sketch.com -->
    <title>Group 5</title>
    <desc>Created with Sketch.</desc>
    <g id="Page-1-Copy" stroke="none" stroke-width="1" fill="none" fill-rule="evenodd">
        <g id="Extra-large:-Desktops---12-col" transform="translate(-1163.000000, -885.000000)">
            <g id="Group-5" transform="translate(1163.000000, 885.000000)">
                <g id="Group-3" transform="translate(68.000000, 30.000000)" fill="#1A1A1A">
                    <rect id="Rectangle" x="0" y="142" width="206" height="33"></rect>
                    <rect id="Rectangle" x="0" y="0" width="206" height="20"></rect>
                    <rect id="Rectangle" x="0" y="40" width="163.126904" height="23"></rect>
                    <rect id="Rectangle" x="0" y="40" width="163.126904" height="55"></rect>
                    <rect id="Rectangle" x="0" y="105" width="125.482234" height="23"></rect>
                    <rect id="Rectangle" x="0" y="25" width="206" height="5"></rect>
                    <rect id="Rectangle" x="42.8730964" y="186" width="120.253807" height="9"></rect>
                    <rect id="Rectangle" x="0" y="200" width="206" height="5"></rect>
                </g>
                <rect id="Rectangle" stroke="#1A1A1A" stroke-width="4" fill-opacity="0.426272946" fill="#1A1A1A" x="2" y="2" width="338" height="260"></rect>
                <path d="M64.597,137.268 L64.597,143.286 C62.591,144.306 60.959,144.51 59.599,144.51 C55.417,144.51 52.595,143.082 50.691,141.212 C48.651,139.24 47.155,136.248 47.155,132.61 C47.155,129.04 48.651,126.048 50.691,124.076 C52.697,122.138 55.621,120.812 59.157,120.812 C60.653,120.812 62.387,121.118 64.597,122.07 L64.597,128.122 C63.441,126.898 61.707,125.708 59.293,125.708 C57.389,125.708 55.859,126.32 54.669,127.476 C53.411,128.7 52.527,130.536 52.527,132.712 C52.527,135.058 53.479,136.724 54.499,137.71 C54.975,138.186 56.607,139.614 59.395,139.614 C60.755,139.614 62.591,139.24 64.597,137.268 Z M80.101,120.812 C83.637,120.812 86.595,121.9 88.873,124.11 C91.015,126.184 92.409,129.176 92.409,132.678 C92.409,135.704 91.321,138.798 88.873,141.178 C86.765,143.218 83.909,144.51 80.101,144.51 C75.851,144.51 72.961,142.81 71.261,141.178 C69.085,139.138 67.725,136.078 67.725,132.746 C67.725,129.482 69.187,126.184 71.227,124.144 C72.757,122.614 75.579,120.812 80.101,120.812 Z M80.067,125.64 C78.095,125.64 76.327,126.354 75.103,127.578 C74.117,128.53 73.097,130.196 73.097,132.712 C73.097,134.786 73.777,136.452 75.171,137.812 C76.633,139.206 78.265,139.682 80.033,139.682 C82.345,139.682 83.977,138.832 85.065,137.744 C85.949,136.894 87.037,135.296 87.037,132.678 C87.037,130.332 86.085,128.598 85.065,127.578 C83.943,126.49 82.141,125.64 80.067,125.64 Z M100.501,144 L95.265,144 L98.903,121.322 L103.255,121.322 L108.899,134.888 L114.543,121.322 L118.895,121.322 L122.533,144 L117.297,144 L115.495,130.468 L109.817,144 L107.981,144 L102.303,130.468 L100.501,144 Z M126.545,121.322 L131.781,121.322 L131.781,144 L126.545,144 L126.545,121.322 Z M142.083,144 L136.847,144 L136.847,121.322 L141.403,121.322 L153.711,135.942 L153.711,121.322 L158.947,121.322 L158.947,144 L154.391,144 L142.083,129.312 L142.083,144 Z M174.825,135.84 L174.825,131.624 L186.079,131.624 L186.079,131.862 C186.079,134.616 185.093,138.798 182.577,141.416 C180.061,144.034 177.171,144.51 174.485,144.51 C171.765,144.51 168.841,144.068 166.189,141.348 C164.863,139.988 162.857,137.234 162.857,132.712 C162.857,129.006 164.217,126.048 166.121,124.11 C168.909,121.22 172.343,120.812 175.029,120.812 C176.899,120.812 179.279,121.118 181.387,122.512 C182.917,123.532 184.243,125.13 185.059,126.558 L180.333,129.108 C179.891,128.224 179.211,127.306 178.327,126.66 C177.307,125.912 176.151,125.572 174.859,125.572 C172.785,125.572 171.255,126.252 170.167,127.408 C168.909,128.734 168.229,130.672 168.229,132.78 C168.229,135.364 169.181,137.03 170.133,137.982 C171.459,139.342 172.989,139.75 174.723,139.75 C176.967,139.75 178.157,138.968 178.667,138.526 C178.837,138.39 179.857,137.506 180.299,135.84 L174.825,135.84 Z M211.953,123.056 L209.607,126.864 C207.907,125.334 206.445,125.232 205.799,125.232 C205.085,125.232 204.201,125.334 203.589,126.014 C203.249,126.354 203.011,126.864 203.011,127.442 C203.011,127.986 203.181,128.394 203.521,128.7 C204.065,129.21 204.847,129.414 206.377,129.992 L208.077,130.638 C209.063,131.012 210.287,131.522 211.171,132.372 C212.497,133.63 212.837,135.262 212.837,136.588 C212.837,138.934 212.021,140.974 210.831,142.198 C208.825,144.306 205.901,144.51 204.405,144.51 C202.773,144.51 201.345,144.272 199.917,143.558 C198.761,142.98 197.435,141.926 196.585,141.076 L199.305,137.336 C199.883,137.914 200.801,138.696 201.413,139.07 C202.297,139.614 203.215,139.886 204.269,139.886 C204.949,139.886 205.901,139.75 206.649,139.104 C207.091,138.73 207.465,138.118 207.465,137.268 C207.465,136.52 207.159,136.044 206.683,135.636 C206.071,135.126 204.677,134.616 204.031,134.378 L202.161,133.732 C201.107,133.358 199.883,132.882 198.999,131.93 C197.809,130.672 197.639,129.074 197.639,127.986 C197.639,125.98 198.251,124.28 199.611,122.886 C201.209,121.254 203.113,120.812 205.221,120.812 C206.785,120.812 209.301,121.084 211.953,123.056 Z M227.933,120.812 C231.469,120.812 234.427,121.9 236.705,124.11 C238.847,126.184 240.241,129.176 240.241,132.678 C240.241,135.704 239.153,138.798 236.705,141.178 C234.597,143.218 231.741,144.51 227.933,144.51 C223.683,144.51 220.793,142.81 219.093,141.178 C216.917,139.138 215.557,136.078 215.557,132.746 C215.557,129.482 217.019,126.184 219.059,124.144 C220.589,122.614 223.411,120.812 227.933,120.812 Z M227.899,125.64 C225.927,125.64 224.159,126.354 222.935,127.578 C221.949,128.53 220.929,130.196 220.929,132.712 C220.929,134.786 221.609,136.452 223.003,137.812 C224.465,139.206 226.097,139.682 227.865,139.682 C230.177,139.682 231.809,138.832 232.897,137.744 C233.781,136.894 234.869,135.296 234.869,132.678 C234.869,130.332 233.917,128.598 232.897,127.578 C231.775,126.49 229.973,125.64 227.899,125.64 Z M255.473,120.812 C259.009,120.812 261.967,121.9 264.245,124.11 C266.387,126.184 267.781,129.176 267.781,132.678 C267.781,135.704 266.693,138.798 264.245,141.178 C262.137,143.218 259.281,144.51 255.473,144.51 C251.223,144.51 248.333,142.81 246.633,141.178 C244.457,139.138 243.097,136.078 243.097,132.746 C243.097,129.482 244.559,126.184 246.599,124.144 C248.129,122.614 250.951,120.812 255.473,120.812 Z M255.439,125.64 C253.467,125.64 251.699,126.354 250.475,127.578 C249.489,128.53 248.469,130.196 248.469,132.712 C248.469,134.786 249.149,136.452 250.543,137.812 C252.005,139.206 253.637,139.682 255.405,139.682 C257.717,139.682 259.349,138.832 260.437,137.744 C261.321,136.894 262.409,135.296 262.409,132.678 C262.409,130.332 261.457,128.598 260.437,127.578 C259.315,126.49 257.513,125.64 255.439,125.64 Z M276.927,144 L271.691,144 L271.691,121.322 L276.247,121.322 L288.555,135.942 L288.555,121.322 L293.791,121.322 L293.791,144 L289.235,144 L276.927,129.312 L276.927,144 Z" id="COMINGSOON" fill="#FFFFFF" fill-rule="nonzero"></path>
            </g>
        </g>
    </g>
</svg>